<svg xmlns="http://www.w3.org/2000/svg" xmlns:xlink="http://www.w3.org/1999/xlink" width="200" zoomAndPan="magnify" viewBox="0 0 150 74.999997" height="100" preserveAspectRatio="xMidYMid meet" version="1.0"><defs><g/><clipPath id="08c9420a23"><path d="M 16.371094 25.328125 L 40 25.328125 L 40 40 L 16.371094 40 Z M 16.371094 25.328125 " clip-rule="nonzero"/></clipPath><clipPath id="4b23609b80"><path d="M 17 34 L 40.371094 34 L 40.371094 49.328125 L 17 49.328125 Z M 17 34 " clip-rule="nonzero"/></clipPath></defs><path fill="#000000" d="M 32.578125 41.152344 L 32.050781 41.679688 L 30.484375 43.234375 L 20.996094 43.234375 L 30.722656 33.503906 L 25.171875 33.503906 L 25.875 32.816406 L 27.265625 31.425781 L 35.746094 31.425781 L 26.019531 41.152344 L 32.578125 41.152344 " fill-opacity="1" fill-rule="nonzero"/><g clip-path="url(#08c9420a23)"><path fill="#000000" d="M 39.859375 33.859375 L 39.410156 34.304688 L 33.875 39.839844 L 30.929688 39.839844 L 37.441406 33.328125 C 35.90625 29.839844 32.417969 27.410156 28.371094 27.410156 C 22.914062 27.410156 18.484375 31.839844 18.449219 37.28125 L 16.515625 39.21875 C 16.417969 38.609375 16.371094 37.96875 16.371094 37.328125 C 16.371094 30.707031 21.746094 25.328125 28.371094 25.328125 C 33.777344 25.328125 38.371094 28.929688 39.859375 33.859375 " fill-opacity="1" fill-rule="nonzero"/></g><g clip-path="url(#4b23609b80)"><path fill="#000000" d="M 40.371094 37.328125 C 40.371094 43.953125 34.996094 49.328125 28.371094 49.328125 C 23.234375 49.328125 18.851562 46.097656 17.140625 41.554688 L 23.089844 35.601562 L 23.875 34.816406 L 26.820312 34.816406 L 19.617188 42.019531 C 21.28125 45.136719 24.578125 47.265625 28.355469 47.265625 C 33.441406 47.265625 37.652344 43.410156 38.210938 38.464844 L 40.324219 36.355469 C 40.355469 36.671875 40.371094 36.992188 40.371094 37.328125 " fill-opacity="1" fill-rule="nonzero"/></g><g fill="#000000" fill-opacity="1"><g transform="translate(43.408425, 37.361473)"><g><path d="M 5.421875 -5.0625 C 5.296875 -5.269531 5.128906 -5.425781 4.921875 -5.53125 C 4.710938 -5.632812 4.46875 -5.6875 4.1875 -5.6875 C 3.65625 -5.6875 3.234375 -5.515625 2.921875 -5.171875 C 2.617188 -4.828125 2.46875 -4.367188 2.46875 -3.796875 C 2.46875 -3.140625 2.628906 -2.640625 2.953125 -2.296875 C 3.285156 -1.960938 3.765625 -1.796875 4.390625 -1.796875 C 5.117188 -1.796875 5.640625 -2.128906 5.953125 -2.796875 L 3.84375 -2.796875 L 3.84375 -4.3125 L 7.765625 -4.3125 L 7.765625 -2.265625 C 7.609375 -1.867188 7.367188 -1.492188 7.046875 -1.140625 C 6.734375 -0.796875 6.332031 -0.507812 5.84375 -0.28125 C 5.351562 -0.0625 4.800781 0.046875 4.1875 0.046875 C 3.425781 0.046875 2.753906 -0.113281 2.171875 -0.4375 C 1.585938 -0.757812 1.132812 -1.210938 0.8125 -1.796875 C 0.5 -2.378906 0.34375 -3.046875 0.34375 -3.796875 C 0.34375 -4.535156 0.5 -5.195312 0.8125 -5.78125 C 1.132812 -6.363281 1.582031 -6.816406 2.15625 -7.140625 C 2.738281 -7.460938 3.410156 -7.625 4.171875 -7.625 C 5.117188 -7.625 5.898438 -7.394531 6.515625 -6.9375 C 7.140625 -6.488281 7.53125 -5.863281 7.6875 -5.0625 Z M 5.421875 -5.0625 "/></g></g></g><g fill="#000000" fill-opacity="1"><g transform="translate(52.266872, 37.361473)"><g><path d="M 2.703125 -7.9375 L 2.703125 0 L 0.59375 0 L 0.59375 -7.9375 Z M 2.703125 -7.9375 "/></g></g></g><g fill="#000000" fill-opacity="1"><g transform="translate(56.316099, 37.361473)"><g><path d="M 6.34375 -3.078125 C 6.34375 -2.910156 6.332031 -2.742188 6.3125 -2.578125 L 2.34375 -2.578125 C 2.363281 -2.253906 2.453125 -2.007812 2.609375 -1.84375 C 2.765625 -1.6875 2.96875 -1.609375 3.21875 -1.609375 C 3.570312 -1.609375 3.828125 -1.765625 3.984375 -2.078125 L 6.21875 -2.078125 C 6.125 -1.660156 5.941406 -1.289062 5.671875 -0.96875 C 5.410156 -0.644531 5.070312 -0.390625 4.65625 -0.203125 C 4.25 -0.015625 3.800781 0.078125 3.3125 0.078125 C 2.71875 0.078125 2.191406 -0.046875 1.734375 -0.296875 C 1.273438 -0.546875 0.910156 -0.898438 0.640625 -1.359375 C 0.378906 -1.828125 0.25 -2.378906 0.25 -3.015625 C 0.25 -3.640625 0.378906 -4.179688 0.640625 -4.640625 C 0.898438 -5.109375 1.257812 -5.46875 1.71875 -5.71875 C 2.175781 -5.96875 2.707031 -6.09375 3.3125 -6.09375 C 3.90625 -6.09375 4.429688 -5.96875 4.890625 -5.71875 C 5.347656 -5.476562 5.703125 -5.128906 5.953125 -4.671875 C 6.210938 -4.222656 6.34375 -3.691406 6.34375 -3.078125 Z M 4.203125 -3.59375 C 4.203125 -3.851562 4.113281 -4.054688 3.9375 -4.203125 C 3.769531 -4.347656 3.554688 -4.421875 3.296875 -4.421875 C 3.046875 -4.421875 2.835938 -4.351562 2.671875 -4.21875 C 2.503906 -4.082031 2.394531 -3.875 2.34375 -3.59375 Z M 4.203125 -3.59375 "/></g></g></g><g fill="#000000" fill-opacity="1"><g transform="translate(63.664303, 37.361473)"><g><path d="M 4.53125 -6.0625 C 5.226562 -6.0625 5.78125 -5.832031 6.1875 -5.375 C 6.59375 -4.914062 6.796875 -4.289062 6.796875 -3.5 L 6.796875 0 L 4.6875 0 L 4.6875 -3.21875 C 4.6875 -3.5625 4.597656 -3.832031 4.421875 -4.03125 C 4.242188 -4.226562 4.003906 -4.328125 3.703125 -4.328125 C 3.390625 -4.328125 3.144531 -4.226562 2.96875 -4.03125 C 2.789062 -3.832031 2.703125 -3.5625 2.703125 -3.21875 L 2.703125 0 L 0.59375 0 L 0.59375 -6.015625 L 2.703125 -6.015625 L 2.703125 -5.15625 C 2.890625 -5.425781 3.140625 -5.644531 3.453125 -5.8125 C 3.765625 -5.976562 4.125 -6.0625 4.53125 -6.0625 Z M 4.53125 -6.0625 "/></g></g></g><g fill="#000000" fill-opacity="1"><g transform="translate(71.762267, 37.361473)"><g><path d="M 4.53125 -6.0625 C 5.226562 -6.0625 5.78125 -5.832031 6.1875 -5.375 C 6.59375 -4.914062 6.796875 -4.289062 6.796875 -3.5 L 6.796875 0 L 4.6875 0 L 4.6875 -3.21875 C 4.6875 -3.5625 4.597656 -3.832031 4.421875 -4.03125 C 4.242188 -4.226562 4.003906 -4.328125 3.703125 -4.328125 C 3.390625 -4.328125 3.144531 -4.226562 2.96875 -4.03125 C 2.789062 -3.832031 2.703125 -3.5625 2.703125 -3.21875 L 2.703125 0 L 0.59375 0 L 0.59375 -6.015625 L 2.703125 -6.015625 L 2.703125 -5.15625 C 2.890625 -5.425781 3.140625 -5.644531 3.453125 -5.8125 C 3.765625 -5.976562 4.125 -6.0625 4.53125 -6.0625 Z M 4.53125 -6.0625 "/></g></g></g><g fill="#000000" fill-opacity="1"><g transform="translate(79.860232, 37.361473)"><g/></g></g><g fill="#000000" fill-opacity="1"><g transform="translate(82.656275, 37.361473)"><g><path d="M 2.890625 -1.703125 L 6.03125 -1.703125 L 6.03125 0 L 0.53125 0 L 0.53125 -1.59375 L 3.640625 -5.859375 L 0.53125 -5.859375 L 0.53125 -7.5625 L 6.03125 -7.5625 L 6.03125 -5.953125 Z M 2.890625 -1.703125 "/></g></g></g><g fill="#000000" fill-opacity="1"><g transform="translate(89.972345, 37.361473)"><g><path d="M 0.25 -3.015625 C 0.25 -3.628906 0.363281 -4.171875 0.59375 -4.640625 C 0.820312 -5.109375 1.128906 -5.46875 1.515625 -5.71875 C 1.898438 -5.96875 2.332031 -6.09375 2.8125 -6.09375 C 3.226562 -6.09375 3.585938 -6.007812 3.890625 -5.84375 C 4.191406 -5.675781 4.425781 -5.453125 4.59375 -5.171875 L 4.59375 -6.015625 L 6.6875 -6.015625 L 6.6875 0 L 4.59375 0 L 4.59375 -0.84375 C 4.425781 -0.5625 4.191406 -0.335938 3.890625 -0.171875 C 3.585938 -0.00390625 3.226562 0.078125 2.8125 0.078125 C 2.332031 0.078125 1.898438 -0.046875 1.515625 -0.296875 C 1.128906 -0.546875 0.820312 -0.90625 0.59375 -1.375 C 0.363281 -1.84375 0.25 -2.390625 0.25 -3.015625 Z M 4.59375 -3.015625 C 4.59375 -3.398438 4.484375 -3.703125 4.265625 -3.921875 C 4.054688 -4.140625 3.800781 -4.25 3.5 -4.25 C 3.175781 -4.25 2.910156 -4.140625 2.703125 -3.921875 C 2.503906 -3.703125 2.40625 -3.398438 2.40625 -3.015625 C 2.40625 -2.628906 2.503906 -2.320312 2.703125 -2.09375 C 2.910156 -1.875 3.175781 -1.765625 3.5 -1.765625 C 3.800781 -1.765625 4.054688 -1.875 4.265625 -2.09375 C 4.484375 -2.3125 4.59375 -2.617188 4.59375 -3.015625 Z M 4.59375 -3.015625 "/></g></g></g><g fill="#000000" fill-opacity="1"><g transform="translate(98.006048, 37.361473)"><g><path d="M 2.703125 -5.171875 C 2.867188 -5.460938 3.097656 -5.6875 3.390625 -5.84375 C 3.691406 -6.007812 4.046875 -6.09375 4.453125 -6.09375 C 4.929688 -6.09375 5.363281 -5.96875 5.75 -5.71875 C 6.144531 -5.46875 6.453125 -5.109375 6.671875 -4.640625 C 6.898438 -4.171875 7.015625 -3.628906 7.015625 -3.015625 C 7.015625 -2.390625 6.898438 -1.84375 6.671875 -1.375 C 6.453125 -0.90625 6.144531 -0.546875 5.75 -0.296875 C 5.363281 -0.046875 4.929688 0.078125 4.453125 0.078125 C 4.046875 0.078125 3.691406 0 3.390625 -0.15625 C 3.097656 -0.320312 2.867188 -0.550781 2.703125 -0.84375 L 2.703125 0 L 0.59375 0 L 0.59375 -7.9375 L 2.703125 -7.9375 Z M 4.890625 -3.015625 C 4.890625 -3.398438 4.78125 -3.703125 4.5625 -3.921875 C 4.351562 -4.140625 4.097656 -4.25 3.796875 -4.25 C 3.484375 -4.25 3.222656 -4.140625 3.015625 -3.921875 C 2.804688 -3.703125 2.703125 -3.398438 2.703125 -3.015625 C 2.703125 -2.617188 2.804688 -2.3125 3.015625 -2.09375 C 3.222656 -1.875 3.484375 -1.765625 3.796875 -1.765625 C 4.097656 -1.765625 4.351562 -1.875 4.5625 -2.09375 C 4.78125 -2.320312 4.890625 -2.628906 4.890625 -3.015625 Z M 4.890625 -3.015625 "/></g></g></g><g fill="#000000" fill-opacity="1"><g transform="translate(106.039754, 37.361473)"><g><path d="M 0.25 -3.015625 C 0.25 -3.628906 0.363281 -4.171875 0.59375 -4.640625 C 0.820312 -5.109375 1.128906 -5.46875 1.515625 -5.71875 C 1.898438 -5.96875 2.332031 -6.09375 2.8125 -6.09375 C 3.226562 -6.09375 3.585938 -6.007812 3.890625 -5.84375 C 4.191406 -5.675781 4.425781 -5.453125 4.59375 -5.171875 L 4.59375 -6.015625 L 6.6875 -6.015625 L 6.6875 0 L 4.59375 0 L 4.59375 -0.84375 C 4.425781 -0.5625 4.191406 -0.335938 3.890625 -0.171875 C 3.585938 -0.00390625 3.226562 0.078125 2.8125 0.078125 C 2.332031 0.078125 1.898438 -0.046875 1.515625 -0.296875 C 1.128906 -0.546875 0.820312 -0.90625 0.59375 -1.375 C 0.363281 -1.84375 0.25 -2.390625 0.25 -3.015625 Z M 4.59375 -3.015625 C 4.59375 -3.398438 4.484375 -3.703125 4.265625 -3.921875 C 4.054688 -4.140625 3.800781 -4.25 3.5 -4.25 C 3.175781 -4.25 2.910156 -4.140625 2.703125 -3.921875 C 2.503906 -3.703125 2.40625 -3.398438 2.40625 -3.015625 C 2.40625 -2.628906 2.503906 -2.320312 2.703125 -2.09375 C 2.910156 -1.875 3.175781 -1.765625 3.5 -1.765625 C 3.800781 -1.765625 4.054688 -1.875 4.265625 -2.09375 C 4.484375 -2.3125 4.59375 -2.617188 4.59375 -3.015625 Z M 4.59375 -3.015625 "/></g></g></g><g fill="#000000" fill-opacity="1"><g transform="translate(114.07346, 37.361473)"><g><path d="M 2.703125 -7.9375 L 2.703125 0 L 0.59375 0 L 0.59375 -7.9375 Z M 2.703125 -7.9375 "/></g></g></g><g fill="#000000" fill-opacity="1"><g transform="translate(118.122689, 37.361473)"><g><path d="M 2.703125 -7.9375 L 2.703125 0 L 0.59375 0 L 0.59375 -7.9375 Z M 2.703125 -7.9375 "/></g></g></g><g fill="#000000" fill-opacity="1"><g transform="translate(122.171917, 37.361473)"><g><path d="M 6.34375 -3.078125 C 6.34375 -2.910156 6.332031 -2.742188 6.3125 -2.578125 L 2.34375 -2.578125 C 2.363281 -2.253906 2.453125 -2.007812 2.609375 -1.84375 C 2.765625 -1.6875 2.96875 -1.609375 3.21875 -1.609375 C 3.570312 -1.609375 3.828125 -1.765625 3.984375 -2.078125 L 6.21875 -2.078125 C 6.125 -1.660156 5.941406 -1.289062 5.671875 -0.96875 C 5.410156 -0.644531 5.070312 -0.390625 4.65625 -0.203125 C 4.25 -0.015625 3.800781 0.078125 3.3125 0.078125 C 2.71875 0.078125 2.191406 -0.046875 1.734375 -0.296875 C 1.273438 -0.546875 0.910156 -0.898438 0.640625 -1.359375 C 0.378906 -1.828125 0.25 -2.378906 0.25 -3.015625 C 0.25 -3.640625 0.378906 -4.179688 0.640625 -4.640625 C 0.898438 -5.109375 1.257812 -5.46875 1.71875 -5.71875 C 2.175781 -5.96875 2.707031 -6.09375 3.3125 -6.09375 C 3.90625 -6.09375 4.429688 -5.96875 4.890625 -5.71875 C 5.347656 -5.476562 5.703125 -5.128906 5.953125 -4.671875 C 6.210938 -4.222656 6.34375 -3.691406 6.34375 -3.078125 Z M 4.203125 -3.59375 C 4.203125 -3.851562 4.113281 -4.054688 3.9375 -4.203125 C 3.769531 -4.347656 3.554688 -4.421875 3.296875 -4.421875 C 3.046875 -4.421875 2.835938 -4.351562 2.671875 -4.21875 C 2.503906 -4.082031 2.394531 -3.875 2.34375 -3.59375 Z M 4.203125 -3.59375 "/></g></g></g><g fill="#000000" fill-opacity="1"><g transform="translate(129.520122, 37.361473)"><g><path d="M 2.703125 -4.953125 C 2.941406 -5.296875 3.226562 -5.566406 3.5625 -5.765625 C 3.894531 -5.960938 4.253906 -6.0625 4.640625 -6.0625 L 4.640625 -3.828125 L 4.046875 -3.828125 C 3.585938 -3.828125 3.25 -3.738281 3.03125 -3.5625 C 2.8125 -3.382812 2.703125 -3.070312 2.703125 -2.625 L 2.703125 0 L 0.59375 0 L 0.59375 -6.015625 L 2.703125 -6.015625 Z M 2.703125 -4.953125 "/></g></g></g><g fill="#000000" fill-opacity="1"><g transform="translate(135.058169, 37.361473)"><g><path d="M 3.390625 0.078125 C 2.796875 0.078125 2.257812 -0.046875 1.78125 -0.296875 C 1.3125 -0.546875 0.9375 -0.898438 0.65625 -1.359375 C 0.382812 -1.828125 0.25 -2.378906 0.25 -3.015625 C 0.25 -3.628906 0.382812 -4.171875 0.65625 -4.640625 C 0.9375 -5.109375 1.316406 -5.46875 1.796875 -5.71875 C 2.273438 -5.96875 2.8125 -6.09375 3.40625 -6.09375 C 4.007812 -6.09375 4.546875 -5.96875 5.015625 -5.71875 C 5.492188 -5.46875 5.867188 -5.109375 6.140625 -4.640625 C 6.421875 -4.171875 6.5625 -3.628906 6.5625 -3.015625 C 6.5625 -2.390625 6.421875 -1.84375 6.140625 -1.375 C 5.867188 -0.90625 5.492188 -0.546875 5.015625 -0.296875 C 4.535156 -0.046875 3.992188 0.078125 3.390625 0.078125 Z M 3.390625 -1.75 C 3.691406 -1.75 3.9375 -1.859375 4.125 -2.078125 C 4.320312 -2.296875 4.421875 -2.609375 4.421875 -3.015625 C 4.421875 -3.421875 4.320312 -3.726562 4.125 -3.9375 C 3.9375 -4.15625 3.695312 -4.265625 3.40625 -4.265625 C 3.125 -4.265625 2.882812 -4.15625 2.6875 -3.9375 C 2.5 -3.726562 2.40625 -3.421875 2.40625 -3.015625 C 2.40625 -2.597656 2.492188 -2.28125 2.671875 -2.0625 C 2.859375 -1.851562 3.097656 -1.75 3.390625 -1.75 Z M 3.390625 -1.75 "/></g></g></g><g fill="#000000" fill-opacity="1"><g transform="translate(43.408425, 45.312851)"><g><path d="M 2.609375 -3.859375 L 2.609375 -3.453125 L 0.921875 -3.453125 L 0.921875 -2.140625 L 2.296875 -2.140625 L 2.296875 -1.734375 L 0.921875 -1.734375 L 0.921875 0 L 0.421875 0 L 0.421875 -3.859375 Z M 2.609375 -3.859375 "/></g></g></g><g fill="#000000" fill-opacity="1"><g transform="translate(47.418372, 45.312851)"><g><path d="M 3.109375 -3.03125 L 3.109375 0 L 2.609375 0 L 2.609375 -0.453125 C 2.515625 -0.296875 2.378906 -0.171875 2.203125 -0.078125 C 2.035156 0.00390625 1.847656 0.046875 1.640625 0.046875 C 1.398438 0.046875 1.1875 0 1 -0.09375 C 0.8125 -0.195312 0.660156 -0.34375 0.546875 -0.53125 C 0.441406 -0.726562 0.390625 -0.96875 0.390625 -1.25 L 0.390625 -3.03125 L 0.890625 -3.03125 L 0.890625 -1.328125 C 0.890625 -1.023438 0.960938 -0.789062 1.109375 -0.625 C 1.265625 -0.46875 1.476562 -0.390625 1.75 -0.390625 C 2.007812 -0.390625 2.21875 -0.472656 2.375 -0.640625 C 2.53125 -0.804688 2.609375 -1.046875 2.609375 -1.359375 L 2.609375 -3.03125 Z M 3.109375 -3.03125 "/></g></g></g><g fill="#000000" fill-opacity="1"><g transform="translate(52.181566, 45.312851)"><g><path d="M 0.921875 -4.09375 L 0.921875 0 L 0.421875 0 L 0.421875 -4.09375 Z M 0.921875 -4.09375 "/></g></g></g><g fill="#000000" fill-opacity="1"><g transform="translate(54.762552, 45.312851)"><g><path d="M 0.921875 -4.09375 L 0.921875 0 L 0.421875 0 L 0.421875 -4.09375 Z M 0.921875 -4.09375 "/></g></g></g><g fill="#000000" fill-opacity="1"><g transform="translate(57.343537, 45.312851)"><g/></g></g><g fill="#000000" fill-opacity="1"><g transform="translate(60.040831, 45.312851)"><g><path d="M 1.640625 0.03125 C 1.390625 0.03125 1.160156 -0.0078125 0.953125 -0.09375 C 0.753906 -0.1875 0.597656 -0.3125 0.484375 -0.46875 C 0.378906 -0.632812 0.320312 -0.820312 0.3125 -1.03125 L 0.859375 -1.03125 C 0.867188 -0.84375 0.9375 -0.6875 1.0625 -0.5625 C 1.195312 -0.445312 1.390625 -0.390625 1.640625 -0.390625 C 1.890625 -0.390625 2.082031 -0.445312 2.21875 -0.5625 C 2.351562 -0.6875 2.421875 -0.84375 2.421875 -1.03125 C 2.421875 -1.175781 2.378906 -1.296875 2.296875 -1.390625 C 2.210938 -1.484375 2.109375 -1.550781 1.984375 -1.59375 C 1.867188 -1.644531 1.707031 -1.695312 1.5 -1.75 C 1.25 -1.820312 1.046875 -1.890625 0.890625 -1.953125 C 0.734375 -2.015625 0.601562 -2.117188 0.5 -2.265625 C 0.394531 -2.410156 0.34375 -2.601562 0.34375 -2.84375 C 0.34375 -3.050781 0.394531 -3.234375 0.5 -3.390625 C 0.601562 -3.554688 0.75 -3.679688 0.9375 -3.765625 C 1.132812 -3.859375 1.359375 -3.90625 1.609375 -3.90625 C 1.972656 -3.90625 2.269531 -3.8125 2.5 -3.625 C 2.726562 -3.445312 2.859375 -3.210938 2.890625 -2.921875 L 2.34375 -2.921875 C 2.320312 -3.066406 2.242188 -3.191406 2.109375 -3.296875 C 1.972656 -3.410156 1.789062 -3.46875 1.5625 -3.46875 C 1.351562 -3.46875 1.179688 -3.410156 1.046875 -3.296875 C 0.921875 -3.191406 0.859375 -3.046875 0.859375 -2.859375 C 0.859375 -2.710938 0.894531 -2.59375 0.96875 -2.5 C 1.050781 -2.414062 1.148438 -2.347656 1.265625 -2.296875 C 1.378906 -2.253906 1.539062 -2.207031 1.75 -2.15625 C 2.007812 -2.082031 2.210938 -2.007812 2.359375 -1.9375 C 2.515625 -1.875 2.648438 -1.769531 2.765625 -1.625 C 2.878906 -1.488281 2.9375 -1.296875 2.9375 -1.046875 C 2.9375 -0.859375 2.882812 -0.679688 2.78125 -0.515625 C 2.6875 -0.347656 2.539062 -0.210938 2.34375 -0.109375 C 2.144531 -0.015625 1.910156 0.03125 1.640625 0.03125 Z M 1.640625 0.03125 "/></g></g></g><g fill="#000000" fill-opacity="1"><g transform="translate(64.51048, 45.312851)"><g><path d="M 1.046875 -2.609375 L 1.046875 -0.828125 C 1.046875 -0.679688 1.078125 -0.578125 1.140625 -0.515625 C 1.203125 -0.453125 1.304688 -0.421875 1.453125 -0.421875 L 1.828125 -0.421875 L 1.828125 0 L 1.375 0 C 1.09375 0 0.878906 -0.0625 0.734375 -0.1875 C 0.597656 -0.320312 0.53125 -0.535156 0.53125 -0.828125 L 0.53125 -2.609375 L 0.140625 -2.609375 L 0.140625 -3.03125 L 0.53125 -3.03125 L 0.53125 -3.796875 L 1.046875 -3.796875 L 1.046875 -3.03125 L 1.828125 -3.03125 L 1.828125 -2.609375 Z M 1.046875 -2.609375 "/></g></g></g><g fill="#000000" fill-opacity="1"><g transform="translate(67.745016, 45.312851)"><g><path d="M 0.234375 -1.53125 C 0.234375 -1.832031 0.296875 -2.097656 0.421875 -2.328125 C 0.546875 -2.566406 0.71875 -2.75 0.9375 -2.875 C 1.15625 -3.007812 1.398438 -3.078125 1.671875 -3.078125 C 1.941406 -3.078125 2.171875 -3.019531 2.359375 -2.90625 C 2.554688 -2.789062 2.703125 -2.648438 2.796875 -2.484375 L 2.796875 -3.03125 L 3.3125 -3.03125 L 3.3125 0 L 2.796875 0 L 2.796875 -0.5625 C 2.703125 -0.382812 2.554688 -0.238281 2.359375 -0.125 C 2.160156 -0.0078125 1.929688 0.046875 1.671875 0.046875 C 1.398438 0.046875 1.15625 -0.015625 0.9375 -0.140625 C 0.71875 -0.273438 0.546875 -0.460938 0.421875 -0.703125 C 0.296875 -0.941406 0.234375 -1.21875 0.234375 -1.53125 Z M 2.796875 -1.515625 C 2.796875 -1.742188 2.75 -1.941406 2.65625 -2.109375 C 2.570312 -2.285156 2.453125 -2.414062 2.296875 -2.5 C 2.140625 -2.59375 1.96875 -2.640625 1.78125 -2.640625 C 1.59375 -2.640625 1.421875 -2.59375 1.265625 -2.5 C 1.109375 -2.414062 0.984375 -2.289062 0.890625 -2.125 C 0.796875 -1.957031 0.75 -1.757812 0.75 -1.53125 C 0.75 -1.289062 0.796875 -1.082031 0.890625 -0.90625 C 0.984375 -0.738281 1.109375 -0.609375 1.265625 -0.515625 C 1.421875 -0.429688 1.59375 -0.390625 1.78125 -0.390625 C 1.96875 -0.390625 2.140625 -0.429688 2.296875 -0.515625 C 2.453125 -0.609375 2.570312 -0.738281 2.65625 -0.90625 C 2.75 -1.082031 2.796875 -1.285156 2.796875 -1.515625 Z M 2.796875 -1.515625 "/></g></g></g><g fill="#000000" fill-opacity="1"><g transform="translate(72.707601, 45.312851)"><g><path d="M 0.234375 -1.515625 C 0.234375 -1.828125 0.296875 -2.097656 0.421875 -2.328125 C 0.546875 -2.566406 0.71875 -2.75 0.9375 -2.875 C 1.164062 -3.007812 1.425781 -3.078125 1.71875 -3.078125 C 2.082031 -3.078125 2.382812 -2.984375 2.625 -2.796875 C 2.875 -2.617188 3.035156 -2.375 3.109375 -2.0625 L 2.578125 -2.0625 C 2.523438 -2.238281 2.421875 -2.378906 2.265625 -2.484375 C 2.117188 -2.597656 1.9375 -2.65625 1.71875 -2.65625 C 1.425781 -2.65625 1.191406 -2.554688 1.015625 -2.359375 C 0.835938 -2.160156 0.75 -1.878906 0.75 -1.515625 C 0.75 -1.148438 0.835938 -0.867188 1.015625 -0.671875 C 1.191406 -0.472656 1.425781 -0.375 1.71875 -0.375 C 1.9375 -0.375 2.117188 -0.425781 2.265625 -0.53125 C 2.410156 -0.632812 2.515625 -0.78125 2.578125 -0.96875 L 3.109375 -0.96875 C 3.035156 -0.664062 2.875 -0.421875 2.625 -0.234375 C 2.382812 -0.046875 2.082031 0.046875 1.71875 0.046875 C 1.425781 0.046875 1.164062 -0.015625 0.9375 -0.140625 C 0.71875 -0.273438 0.546875 -0.457031 0.421875 -0.6875 C 0.296875 -0.925781 0.234375 -1.203125 0.234375 -1.515625 Z M 0.234375 -1.515625 "/></g></g></g><g fill="#000000" fill-opacity="1"><g transform="translate(77.288026, 45.312851)"><g><path d="M 2.125 0 L 0.921875 -1.34375 L 0.921875 0 L 0.421875 0 L 0.421875 -4.09375 L 0.921875 -4.09375 L 0.921875 -1.6875 L 2.09375 -3.03125 L 2.796875 -3.03125 L 1.375 -1.515625 L 2.796875 0 Z M 2.125 0 "/></g></g></g><g fill="#000000" fill-opacity="1"><g transform="translate(81.358891, 45.312851)"><g/></g></g><g fill="#000000" fill-opacity="1"><g transform="translate(84.056186, 45.312851)"><g><path d="M 5.265625 -3.859375 L 4.15625 0 L 3.59375 0 L 2.6875 -3.109375 L 1.765625 0 L 1.203125 0 L 0.125 -3.859375 L 0.65625 -3.859375 L 1.5 -0.59375 L 2.4375 -3.859375 L 3 -3.859375 L 3.890625 -0.59375 L 4.734375 -3.859375 Z M 5.265625 -3.859375 "/></g></g></g><g fill="#000000" fill-opacity="1"><g transform="translate(90.680351, 45.312851)"><g><path d="M 3.1875 -1.625 C 3.1875 -1.53125 3.179688 -1.429688 3.171875 -1.328125 L 0.75 -1.328125 C 0.769531 -1.023438 0.875 -0.789062 1.0625 -0.625 C 1.25 -0.457031 1.472656 -0.375 1.734375 -0.375 C 1.953125 -0.375 2.132812 -0.425781 2.28125 -0.53125 C 2.425781 -0.632812 2.53125 -0.769531 2.59375 -0.9375 L 3.125 -0.9375 C 3.050781 -0.644531 2.890625 -0.40625 2.640625 -0.21875 C 2.398438 -0.0390625 2.097656 0.046875 1.734375 0.046875 C 1.453125 0.046875 1.195312 -0.015625 0.96875 -0.140625 C 0.738281 -0.273438 0.554688 -0.457031 0.421875 -0.6875 C 0.296875 -0.925781 0.234375 -1.203125 0.234375 -1.515625 C 0.234375 -1.828125 0.296875 -2.101562 0.421875 -2.34375 C 0.546875 -2.582031 0.722656 -2.765625 0.953125 -2.890625 C 1.179688 -3.015625 1.441406 -3.078125 1.734375 -3.078125 C 2.023438 -3.078125 2.28125 -3.015625 2.5 -2.890625 C 2.71875 -2.765625 2.882812 -2.59375 3 -2.375 C 3.125 -2.15625 3.1875 -1.90625 3.1875 -1.625 Z M 2.671875 -1.734375 C 2.671875 -1.929688 2.628906 -2.097656 2.546875 -2.234375 C 2.460938 -2.367188 2.347656 -2.472656 2.203125 -2.546875 C 2.054688 -2.617188 1.894531 -2.65625 1.71875 -2.65625 C 1.457031 -2.65625 1.238281 -2.570312 1.0625 -2.40625 C 0.882812 -2.25 0.78125 -2.023438 0.75 -1.734375 Z M 2.671875 -1.734375 "/></g></g></g><g fill="#000000" fill-opacity="1"><g transform="translate(95.332771, 45.312851)"><g><path d="M 0.921875 -2.46875 C 1.023438 -2.644531 1.175781 -2.789062 1.375 -2.90625 C 1.582031 -3.019531 1.8125 -3.078125 2.0625 -3.078125 C 2.332031 -3.078125 2.578125 -3.007812 2.796875 -2.875 C 3.015625 -2.75 3.1875 -2.566406 3.3125 -2.328125 C 3.4375 -2.097656 3.5 -1.832031 3.5 -1.53125 C 3.5 -1.21875 3.4375 -0.941406 3.3125 -0.703125 C 3.1875 -0.460938 3.015625 -0.273438 2.796875 -0.140625 C 2.578125 -0.015625 2.332031 0.046875 2.0625 0.046875 C 1.800781 0.046875 1.570312 -0.0078125 1.375 -0.125 C 1.175781 -0.238281 1.023438 -0.382812 0.921875 -0.5625 L 0.921875 0 L 0.421875 0 L 0.421875 -4.09375 L 0.921875 -4.09375 Z M 2.984375 -1.53125 C 2.984375 -1.757812 2.9375 -1.957031 2.84375 -2.125 C 2.75 -2.289062 2.625 -2.414062 2.46875 -2.5 C 2.3125 -2.59375 2.140625 -2.640625 1.953125 -2.640625 C 1.773438 -2.640625 1.609375 -2.59375 1.453125 -2.5 C 1.296875 -2.414062 1.164062 -2.285156 1.0625 -2.109375 C 0.96875 -1.941406 0.921875 -1.742188 0.921875 -1.515625 C 0.921875 -1.285156 0.96875 -1.082031 1.0625 -0.90625 C 1.164062 -0.738281 1.296875 -0.609375 1.453125 -0.515625 C 1.609375 -0.429688 1.773438 -0.390625 1.953125 -0.390625 C 2.140625 -0.390625 2.3125 -0.429688 2.46875 -0.515625 C 2.625 -0.609375 2.75 -0.738281 2.84375 -0.90625 C 2.9375 -1.082031 2.984375 -1.289062 2.984375 -1.53125 Z M 2.984375 -1.53125 "/></g></g></g><g fill="#000000" fill-opacity="1"><g transform="translate(100.295356, 45.312851)"><g/></g></g><g fill="#000000" fill-opacity="1"><g transform="translate(102.992654, 45.312851)"><g><path d="M 1.625 -3.859375 C 2.039062 -3.859375 2.40625 -3.78125 2.71875 -3.625 C 3.03125 -3.46875 3.265625 -3.242188 3.421875 -2.953125 C 3.585938 -2.660156 3.671875 -2.316406 3.671875 -1.921875 C 3.671875 -1.523438 3.585938 -1.179688 3.421875 -0.890625 C 3.265625 -0.597656 3.03125 -0.375 2.71875 -0.21875 C 2.40625 -0.0703125 2.039062 0 1.625 0 L 0.421875 0 L 0.421875 -3.859375 Z M 1.625 -0.421875 C 2.125 -0.421875 2.503906 -0.550781 2.765625 -0.8125 C 3.023438 -1.070312 3.15625 -1.441406 3.15625 -1.921875 C 3.15625 -2.398438 3.023438 -2.773438 2.765625 -3.046875 C 2.503906 -3.316406 2.125 -3.453125 1.625 -3.453125 L 0.921875 -3.453125 L 0.921875 -0.421875 Z M 1.625 -0.421875 "/></g></g></g><g fill="#000000" fill-opacity="1"><g transform="translate(108.126932, 45.312851)"><g><path d="M 3.1875 -1.625 C 3.1875 -1.53125 3.179688 -1.429688 3.171875 -1.328125 L 0.75 -1.328125 C 0.769531 -1.023438 0.875 -0.789062 1.0625 -0.625 C 1.25 -0.457031 1.472656 -0.375 1.734375 -0.375 C 1.953125 -0.375 2.132812 -0.425781 2.28125 -0.53125 C 2.425781 -0.632812 2.53125 -0.769531 2.59375 -0.9375 L 3.125 -0.9375 C 3.050781 -0.644531 2.890625 -0.40625 2.640625 -0.21875 C 2.398438 -0.0390625 2.097656 0.046875 1.734375 0.046875 C 1.453125 0.046875 1.195312 -0.015625 0.96875 -0.140625 C 0.738281 -0.273438 0.554688 -0.457031 0.421875 -0.6875 C 0.296875 -0.925781 0.234375 -1.203125 0.234375 -1.515625 C 0.234375 -1.828125 0.296875 -2.101562 0.421875 -2.34375 C 0.546875 -2.582031 0.722656 -2.765625 0.953125 -2.890625 C 1.179688 -3.015625 1.441406 -3.078125 1.734375 -3.078125 C 2.023438 -3.078125 2.28125 -3.015625 2.5 -2.890625 C 2.71875 -2.765625 2.882812 -2.59375 3 -2.375 C 3.125 -2.15625 3.1875 -1.90625 3.1875 -1.625 Z M 2.671875 -1.734375 C 2.671875 -1.929688 2.628906 -2.097656 2.546875 -2.234375 C 2.460938 -2.367188 2.347656 -2.472656 2.203125 -2.546875 C 2.054688 -2.617188 1.894531 -2.65625 1.71875 -2.65625 C 1.457031 -2.65625 1.238281 -2.570312 1.0625 -2.40625 C 0.882812 -2.25 0.78125 -2.023438 0.75 -1.734375 Z M 2.671875 -1.734375 "/></g></g></g><g fill="#000000" fill-opacity="1"><g transform="translate(112.779352, 45.312851)"><g><path d="M 1.546875 -0.46875 L 2.5 -3.03125 L 3.03125 -3.03125 L 1.84375 0 L 1.25 0 L 0.0625 -3.03125 L 0.609375 -3.03125 Z M 1.546875 -0.46875 "/></g></g></g><g fill="#000000" fill-opacity="1"><g transform="translate(117.104993, 45.312851)"><g><path d="M 3.1875 -1.625 C 3.1875 -1.53125 3.179688 -1.429688 3.171875 -1.328125 L 0.75 -1.328125 C 0.769531 -1.023438 0.875 -0.789062 1.0625 -0.625 C 1.25 -0.457031 1.472656 -0.375 1.734375 -0.375 C 1.953125 -0.375 2.132812 -0.425781 2.28125 -0.53125 C 2.425781 -0.632812 2.53125 -0.769531 2.59375 -0.9375 L 3.125 -0.9375 C 3.050781 -0.644531 2.890625 -0.40625 2.640625 -0.21875 C 2.398438 -0.0390625 2.097656 0.046875 1.734375 0.046875 C 1.453125 0.046875 1.195312 -0.015625 0.96875 -0.140625 C 0.738281 -0.273438 0.554688 -0.457031 0.421875 -0.6875 C 0.296875 -0.925781 0.234375 -1.203125 0.234375 -1.515625 C 0.234375 -1.828125 0.296875 -2.101562 0.421875 -2.34375 C 0.546875 -2.582031 0.722656 -2.765625 0.953125 -2.890625 C 1.179688 -3.015625 1.441406 -3.078125 1.734375 -3.078125 C 2.023438 -3.078125 2.28125 -3.015625 2.5 -2.890625 C 2.71875 -2.765625 2.882812 -2.59375 3 -2.375 C 3.125 -2.15625 3.1875 -1.90625 3.1875 -1.625 Z M 2.671875 -1.734375 C 2.671875 -1.929688 2.628906 -2.097656 2.546875 -2.234375 C 2.460938 -2.367188 2.347656 -2.472656 2.203125 -2.546875 C 2.054688 -2.617188 1.894531 -2.65625 1.71875 -2.65625 C 1.457031 -2.65625 1.238281 -2.570312 1.0625 -2.40625 C 0.882812 -2.25 0.78125 -2.023438 0.75 -1.734375 Z M 2.671875 -1.734375 "/></g></g></g><g fill="#000000" fill-opacity="1"><g transform="translate(121.757412, 45.312851)"><g><path d="M 0.921875 -4.09375 L 0.921875 0 L 0.421875 0 L 0.421875 -4.09375 Z M 0.921875 -4.09375 "/></g></g></g><g fill="#000000" fill-opacity="1"><g transform="translate(124.338397, 45.312851)"><g><path d="M 1.75 0.046875 C 1.46875 0.046875 1.207031 -0.015625 0.96875 -0.140625 C 0.738281 -0.273438 0.554688 -0.457031 0.421875 -0.6875 C 0.296875 -0.925781 0.234375 -1.203125 0.234375 -1.515625 C 0.234375 -1.828125 0.300781 -2.101562 0.4375 -2.34375 C 0.570312 -2.582031 0.753906 -2.765625 0.984375 -2.890625 C 1.222656 -3.015625 1.484375 -3.078125 1.765625 -3.078125 C 2.054688 -3.078125 2.316406 -3.015625 2.546875 -2.890625 C 2.773438 -2.765625 2.957031 -2.582031 3.09375 -2.34375 C 3.226562 -2.101562 3.296875 -1.828125 3.296875 -1.515625 C 3.296875 -1.203125 3.226562 -0.925781 3.09375 -0.6875 C 2.957031 -0.457031 2.769531 -0.273438 2.53125 -0.140625 C 2.289062 -0.015625 2.03125 0.046875 1.75 0.046875 Z M 1.75 -0.390625 C 1.925781 -0.390625 2.09375 -0.429688 2.25 -0.515625 C 2.414062 -0.597656 2.546875 -0.722656 2.640625 -0.890625 C 2.734375 -1.066406 2.78125 -1.273438 2.78125 -1.515625 C 2.78125 -1.765625 2.734375 -1.972656 2.640625 -2.140625 C 2.546875 -2.304688 2.421875 -2.429688 2.265625 -2.515625 C 2.109375 -2.597656 1.941406 -2.640625 1.765625 -2.640625 C 1.578125 -2.640625 1.40625 -2.597656 1.25 -2.515625 C 1.101562 -2.429688 0.984375 -2.304688 0.890625 -2.140625 C 0.796875 -1.972656 0.75 -1.765625 0.75 -1.515625 C 0.75 -1.273438 0.789062 -1.066406 0.875 -0.890625 C 0.96875 -0.722656 1.09375 -0.597656 1.25 -0.515625 C 1.40625 -0.429688 1.570312 -0.390625 1.75 -0.390625 Z M 1.75 -0.390625 "/></g></g></g><g fill="#000000" fill-opacity="1"><g transform="translate(129.101591, 45.312851)"><g><path d="M 0.921875 -2.46875 C 1.023438 -2.644531 1.175781 -2.789062 1.375 -2.90625 C 1.570312 -3.019531 1.800781 -3.078125 2.0625 -3.078125 C 2.332031 -3.078125 2.578125 -3.007812 2.796875 -2.875 C 3.015625 -2.75 3.1875 -2.566406 3.3125 -2.328125 C 3.4375 -2.097656 3.5 -1.832031 3.5 -1.53125 C 3.5 -1.21875 3.4375 -0.941406 3.3125 -0.703125 C 3.1875 -0.460938 3.015625 -0.273438 2.796875 -0.140625 C 2.578125 -0.015625 2.332031 0.046875 2.0625 0.046875 C 1.800781 0.046875 1.570312 -0.0078125 1.375 -0.125 C 1.175781 -0.238281 1.023438 -0.382812 0.921875 -0.5625 L 0.921875 1.4375 L 0.421875 1.4375 L 0.421875 -3.03125 L 0.921875 -3.03125 Z M 2.984375 -1.53125 C 2.984375 -1.757812 2.9375 -1.957031 2.84375 -2.125 C 2.75 -2.289062 2.625 -2.414062 2.46875 -2.5 C 2.3125 -2.59375 2.140625 -2.640625 1.953125 -2.640625 C 1.773438 -2.640625 1.609375 -2.59375 1.453125 -2.5 C 1.296875 -2.414062 1.164062 -2.285156 1.0625 -2.109375 C 0.96875 -1.941406 0.921875 -1.742188 0.921875 -1.515625 C 0.921875 -1.285156 0.96875 -1.082031 1.0625 -0.90625 C 1.164062 -0.738281 1.296875 -0.609375 1.453125 -0.515625 C 1.609375 -0.429688 1.773438 -0.390625 1.953125 -0.390625 C 2.140625 -0.390625 2.3125 -0.429688 2.46875 -0.515625 C 2.625 -0.609375 2.75 -0.738281 2.84375 -0.90625 C 2.9375 -1.082031 2.984375 -1.289062 2.984375 -1.53125 Z M 2.984375 -1.53125 "/></g></g></g><g fill="#000000" fill-opacity="1"><g transform="translate(134.064176, 45.312851)"><g><path d="M 3.1875 -1.625 C 3.1875 -1.53125 3.179688 -1.429688 3.171875 -1.328125 L 0.75 -1.328125 C 0.769531 -1.023438 0.875 -0.789062 1.0625 -0.625 C 1.25 -0.457031 1.472656 -0.375 1.734375 -0.375 C 1.953125 -0.375 2.132812 -0.425781 2.28125 -0.53125 C 2.425781 -0.632812 2.53125 -0.769531 2.59375 -0.9375 L 3.125 -0.9375 C 3.050781 -0.644531 2.890625 -0.40625 2.640625 -0.21875 C 2.398438 -0.0390625 2.097656 0.046875 1.734375 0.046875 C 1.453125 0.046875 1.195312 -0.015625 0.96875 -0.140625 C 0.738281 -0.273438 0.554688 -0.457031 0.421875 -0.6875 C 0.296875 -0.925781 0.234375 -1.203125 0.234375 -1.515625 C 0.234375 -1.828125 0.296875 -2.101562 0.421875 -2.34375 C 0.546875 -2.582031 0.722656 -2.765625 0.953125 -2.890625 C 1.179688 -3.015625 1.441406 -3.078125 1.734375 -3.078125 C 2.023438 -3.078125 2.28125 -3.015625 2.5 -2.890625 C 2.71875 -2.765625 2.882812 -2.59375 3 -2.375 C 3.125 -2.15625 3.1875 -1.90625 3.1875 -1.625 Z M 2.671875 -1.734375 C 2.671875 -1.929688 2.628906 -2.097656 2.546875 -2.234375 C 2.460938 -2.367188 2.347656 -2.472656 2.203125 -2.546875 C 2.054688 -2.617188 1.894531 -2.65625 1.71875 -2.65625 C 1.457031 -2.65625 1.238281 -2.570312 1.0625 -2.40625 C 0.882812 -2.25 0.78125 -2.023438 0.75 -1.734375 Z M 2.671875 -1.734375 "/></g></g></g><g fill="#000000" fill-opacity="1"><g transform="translate(138.716596, 45.312851)"><g><path d="M 0.921875 -2.53125 C 1.015625 -2.707031 1.140625 -2.84375 1.296875 -2.9375 C 1.460938 -3.039062 1.664062 -3.09375 1.90625 -3.09375 L 1.90625 -2.5625 L 1.78125 -2.5625 C 1.207031 -2.5625 0.921875 -2.253906 0.921875 -1.640625 L 0.921875 0 L 0.421875 0 L 0.421875 -3.03125 L 0.921875 -3.03125 Z M 0.921875 -2.53125 "/></g></g></g></svg>