<svg xmlns="http://www.w3.org/2000/svg" xmlns:xlink="http://www.w3.org/1999/xlink" width="200" zoomAndPan="magnify" viewBox="0 0 150 74.999997" height="100" preserveAspectRatio="xMidYMid meet" version="1.0"><defs><g/><clipPath id="a877d3ed72"><path d="M 16.371094 25.328125 L 40 25.328125 L 40 40 L 16.371094 40 Z M 16.371094 25.328125 " clip-rule="nonzero"/></clipPath><clipPath id="156c4e1dc7"><path d="M 17 34 L 40.371094 34 L 40.371094 49.328125 L 17 49.328125 Z M 17 34 " clip-rule="nonzero"/></clipPath></defs><path fill="#000000" d="M 32.578125 41.152344 L 32.050781 41.679688 L 30.484375 43.234375 L 20.996094 43.234375 L 30.722656 33.503906 L 25.171875 33.503906 L 25.875 32.816406 L 27.265625 31.425781 L 35.746094 31.425781 L 26.019531 41.152344 L 32.578125 41.152344 " fill-opacity="1" fill-rule="nonzero"/><g clip-path="url(#a877d3ed72)"><path fill="#000000" d="M 39.859375 33.859375 L 39.410156 34.304688 L 33.875 39.839844 L 30.929688 39.839844 L 37.441406 33.328125 C 35.90625 29.839844 32.417969 27.410156 28.371094 27.410156 C 22.914062 27.410156 18.484375 31.839844 18.449219 37.28125 L 16.515625 39.21875 C 16.417969 38.609375 16.371094 37.96875 16.371094 37.328125 C 16.371094 30.707031 21.746094 25.328125 28.371094 25.328125 C 33.777344 25.328125 38.371094 28.929688 39.859375 33.859375 " fill-opacity="1" fill-rule="nonzero"/></g><g clip-path="url(#156c4e1dc7)"><path fill="#000000" d="M 40.371094 37.328125 C 40.371094 43.953125 34.996094 49.328125 28.371094 49.328125 C 23.234375 49.328125 18.851562 46.097656 17.140625 41.554688 L 23.089844 35.601562 L 23.875 34.816406 L 26.820312 34.816406 L 19.617188 42.019531 C 21.28125 45.136719 24.578125 47.265625 28.355469 47.265625 C 33.441406 47.265625 37.652344 43.410156 38.210938 38.464844 L 40.324219 36.355469 C 40.355469 36.671875 40.371094 36.992188 40.371094 37.328125 " fill-opacity="1" fill-rule="nonzero"/></g><g fill="#000000" fill-opacity="1"><g transform="translate(45.468991, 37.750723)"><g><path d="M 5.421875 -5.0625 C 5.296875 -5.269531 5.128906 -5.425781 4.921875 -5.53125 C 4.710938 -5.632812 4.46875 -5.6875 4.1875 -5.6875 C 3.65625 -5.6875 3.234375 -5.515625 2.921875 -5.171875 C 2.617188 -4.828125 2.46875 -4.367188 2.46875 -3.796875 C 2.46875 -3.140625 2.628906 -2.640625 2.953125 -2.296875 C 3.285156 -1.960938 3.765625 -1.796875 4.390625 -1.796875 C 5.117188 -1.796875 5.640625 -2.128906 5.953125 -2.796875 L 3.84375 -2.796875 L 3.84375 -4.3125 L 7.765625 -4.3125 L 7.765625 -2.265625 C 7.609375 -1.867188 7.367188 -1.492188 7.046875 -1.140625 C 6.734375 -0.796875 6.332031 -0.507812 5.84375 -0.28125 C 5.351562 -0.0625 4.800781 0.046875 4.1875 0.046875 C 3.425781 0.046875 2.753906 -0.113281 2.171875 -0.4375 C 1.585938 -0.757812 1.132812 -1.210938 0.8125 -1.796875 C 0.5 -2.378906 0.34375 -3.046875 0.34375 -3.796875 C 0.34375 -4.535156 0.5 -5.195312 0.8125 -5.78125 C 1.132812 -6.363281 1.582031 -6.816406 2.15625 -7.140625 C 2.738281 -7.460938 3.410156 -7.625 4.171875 -7.625 C 5.117188 -7.625 5.898438 -7.394531 6.515625 -6.9375 C 7.140625 -6.488281 7.53125 -5.863281 7.6875 -5.0625 Z M 5.421875 -5.0625 "/></g></g></g><g fill="#000000" fill-opacity="1"><g transform="translate(53.574521, 37.750723)"><g><path d="M 2.703125 -7.9375 L 2.703125 0 L 0.59375 0 L 0.59375 -7.9375 Z M 2.703125 -7.9375 "/></g></g></g><g fill="#000000" fill-opacity="1"><g transform="translate(56.872407, 37.750723)"><g><path d="M 6.34375 -3.078125 C 6.34375 -2.910156 6.332031 -2.742188 6.3125 -2.578125 L 2.34375 -2.578125 C 2.363281 -2.253906 2.453125 -2.007812 2.609375 -1.84375 C 2.765625 -1.6875 2.96875 -1.609375 3.21875 -1.609375 C 3.570312 -1.609375 3.828125 -1.765625 3.984375 -2.078125 L 6.21875 -2.078125 C 6.125 -1.660156 5.941406 -1.289062 5.671875 -0.96875 C 5.410156 -0.644531 5.070312 -0.390625 4.65625 -0.203125 C 4.25 -0.015625 3.800781 0.078125 3.3125 0.078125 C 2.71875 0.078125 2.191406 -0.046875 1.734375 -0.296875 C 1.273438 -0.546875 0.910156 -0.898438 0.640625 -1.359375 C 0.378906 -1.828125 0.25 -2.378906 0.25 -3.015625 C 0.25 -3.640625 0.378906 -4.179688 0.640625 -4.640625 C 0.898438 -5.109375 1.257812 -5.46875 1.71875 -5.71875 C 2.175781 -5.96875 2.707031 -6.09375 3.3125 -6.09375 C 3.90625 -6.09375 4.429688 -5.96875 4.890625 -5.71875 C 5.347656 -5.476562 5.703125 -5.128906 5.953125 -4.671875 C 6.210938 -4.222656 6.34375 -3.691406 6.34375 -3.078125 Z M 4.203125 -3.59375 C 4.203125 -3.851562 4.113281 -4.054688 3.9375 -4.203125 C 3.769531 -4.347656 3.554688 -4.421875 3.296875 -4.421875 C 3.046875 -4.421875 2.835938 -4.351562 2.671875 -4.21875 C 2.503906 -4.082031 2.394531 -3.875 2.34375 -3.59375 Z M 4.203125 -3.59375 "/></g></g></g><g fill="#000000" fill-opacity="1"><g transform="translate(63.468189, 37.750723)"><g><path d="M 4.53125 -6.0625 C 5.226562 -6.0625 5.78125 -5.832031 6.1875 -5.375 C 6.59375 -4.914062 6.796875 -4.289062 6.796875 -3.5 L 6.796875 0 L 4.6875 0 L 4.6875 -3.21875 C 4.6875 -3.5625 4.597656 -3.832031 4.421875 -4.03125 C 4.242188 -4.226562 4.003906 -4.328125 3.703125 -4.328125 C 3.390625 -4.328125 3.144531 -4.226562 2.96875 -4.03125 C 2.789062 -3.832031 2.703125 -3.5625 2.703125 -3.21875 L 2.703125 0 L 0.59375 0 L 0.59375 -6.015625 L 2.703125 -6.015625 L 2.703125 -5.15625 C 2.890625 -5.425781 3.140625 -5.644531 3.453125 -5.8125 C 3.765625 -5.976562 4.125 -6.0625 4.53125 -6.0625 Z M 4.53125 -6.0625 "/></g></g></g><g fill="#000000" fill-opacity="1"><g transform="translate(70.81349, 37.750723)"><g><path d="M 4.53125 -6.0625 C 5.226562 -6.0625 5.78125 -5.832031 6.1875 -5.375 C 6.59375 -4.914062 6.796875 -4.289062 6.796875 -3.5 L 6.796875 0 L 4.6875 0 L 4.6875 -3.21875 C 4.6875 -3.5625 4.597656 -3.832031 4.421875 -4.03125 C 4.242188 -4.226562 4.003906 -4.328125 3.703125 -4.328125 C 3.390625 -4.328125 3.144531 -4.226562 2.96875 -4.03125 C 2.789062 -3.832031 2.703125 -3.5625 2.703125 -3.21875 L 2.703125 0 L 0.59375 0 L 0.59375 -6.015625 L 2.703125 -6.015625 L 2.703125 -5.15625 C 2.890625 -5.425781 3.140625 -5.644531 3.453125 -5.8125 C 3.765625 -5.976562 4.125 -6.0625 4.53125 -6.0625 Z M 4.53125 -6.0625 "/></g></g></g><g fill="#000000" fill-opacity="1"><g transform="translate(78.15879, 37.750723)"><g/></g></g><g fill="#000000" fill-opacity="1"><g transform="translate(80.203905, 37.750723)"><g><path d="M 2.890625 -1.703125 L 6.03125 -1.703125 L 6.03125 0 L 0.53125 0 L 0.53125 -1.59375 L 3.640625 -5.859375 L 0.53125 -5.859375 L 0.53125 -7.5625 L 6.03125 -7.5625 L 6.03125 -5.953125 Z M 2.890625 -1.703125 "/></g></g></g><g fill="#000000" fill-opacity="1"><g transform="translate(86.767562, 37.750723)"><g><path d="M 0.25 -3.015625 C 0.25 -3.628906 0.363281 -4.171875 0.59375 -4.640625 C 0.820312 -5.109375 1.128906 -5.46875 1.515625 -5.71875 C 1.898438 -5.96875 2.332031 -6.09375 2.8125 -6.09375 C 3.226562 -6.09375 3.585938 -6.007812 3.890625 -5.84375 C 4.191406 -5.675781 4.425781 -5.453125 4.59375 -5.171875 L 4.59375 -6.015625 L 6.6875 -6.015625 L 6.6875 0 L 4.59375 0 L 4.59375 -0.84375 C 4.425781 -0.5625 4.191406 -0.335938 3.890625 -0.171875 C 3.585938 -0.00390625 3.226562 0.078125 2.8125 0.078125 C 2.332031 0.078125 1.898438 -0.046875 1.515625 -0.296875 C 1.128906 -0.546875 0.820312 -0.90625 0.59375 -1.375 C 0.363281 -1.84375 0.25 -2.390625 0.25 -3.015625 Z M 4.59375 -3.015625 C 4.59375 -3.398438 4.484375 -3.703125 4.265625 -3.921875 C 4.054688 -4.140625 3.800781 -4.25 3.5 -4.25 C 3.175781 -4.25 2.910156 -4.140625 2.703125 -3.921875 C 2.503906 -3.703125 2.40625 -3.398438 2.40625 -3.015625 C 2.40625 -2.628906 2.503906 -2.320312 2.703125 -2.09375 C 2.910156 -1.875 3.175781 -1.765625 3.5 -1.765625 C 3.800781 -1.765625 4.054688 -1.875 4.265625 -2.09375 C 4.484375 -2.3125 4.59375 -2.617188 4.59375 -3.015625 Z M 4.59375 -3.015625 "/></g></g></g><g fill="#000000" fill-opacity="1"><g transform="translate(94.04862, 37.750723)"><g><path d="M 2.703125 -5.171875 C 2.867188 -5.460938 3.097656 -5.6875 3.390625 -5.84375 C 3.691406 -6.007812 4.046875 -6.09375 4.453125 -6.09375 C 4.929688 -6.09375 5.363281 -5.96875 5.75 -5.71875 C 6.144531 -5.46875 6.453125 -5.109375 6.671875 -4.640625 C 6.898438 -4.171875 7.015625 -3.628906 7.015625 -3.015625 C 7.015625 -2.390625 6.898438 -1.84375 6.671875 -1.375 C 6.453125 -0.90625 6.144531 -0.546875 5.75 -0.296875 C 5.363281 -0.046875 4.929688 0.078125 4.453125 0.078125 C 4.046875 0.078125 3.691406 0 3.390625 -0.15625 C 3.097656 -0.320312 2.867188 -0.550781 2.703125 -0.84375 L 2.703125 0 L 0.59375 0 L 0.59375 -7.9375 L 2.703125 -7.9375 Z M 4.890625 -3.015625 C 4.890625 -3.398438 4.78125 -3.703125 4.5625 -3.921875 C 4.351562 -4.140625 4.097656 -4.25 3.796875 -4.25 C 3.484375 -4.25 3.222656 -4.140625 3.015625 -3.921875 C 2.804688 -3.703125 2.703125 -3.398438 2.703125 -3.015625 C 2.703125 -2.617188 2.804688 -2.3125 3.015625 -2.09375 C 3.222656 -1.875 3.484375 -1.765625 3.796875 -1.765625 C 4.097656 -1.765625 4.351562 -1.875 4.5625 -2.09375 C 4.78125 -2.320312 4.890625 -2.628906 4.890625 -3.015625 Z M 4.890625 -3.015625 "/></g></g></g><g fill="#000000" fill-opacity="1"><g transform="translate(101.329678, 37.750723)"><g><path d="M 0.25 -3.015625 C 0.25 -3.628906 0.363281 -4.171875 0.59375 -4.640625 C 0.820312 -5.109375 1.128906 -5.46875 1.515625 -5.71875 C 1.898438 -5.96875 2.332031 -6.09375 2.8125 -6.09375 C 3.226562 -6.09375 3.585938 -6.007812 3.890625 -5.84375 C 4.191406 -5.675781 4.425781 -5.453125 4.59375 -5.171875 L 4.59375 -6.015625 L 6.6875 -6.015625 L 6.6875 0 L 4.59375 0 L 4.59375 -0.84375 C 4.425781 -0.5625 4.191406 -0.335938 3.890625 -0.171875 C 3.585938 -0.00390625 3.226562 0.078125 2.8125 0.078125 C 2.332031 0.078125 1.898438 -0.046875 1.515625 -0.296875 C 1.128906 -0.546875 0.820312 -0.90625 0.59375 -1.375 C 0.363281 -1.84375 0.25 -2.390625 0.25 -3.015625 Z M 4.59375 -3.015625 C 4.59375 -3.398438 4.484375 -3.703125 4.265625 -3.921875 C 4.054688 -4.140625 3.800781 -4.25 3.5 -4.25 C 3.175781 -4.25 2.910156 -4.140625 2.703125 -3.921875 C 2.503906 -3.703125 2.40625 -3.398438 2.40625 -3.015625 C 2.40625 -2.628906 2.503906 -2.320312 2.703125 -2.09375 C 2.910156 -1.875 3.175781 -1.765625 3.5 -1.765625 C 3.800781 -1.765625 4.054688 -1.875 4.265625 -2.09375 C 4.484375 -2.3125 4.59375 -2.617188 4.59375 -3.015625 Z M 4.59375 -3.015625 "/></g></g></g><g fill="#000000" fill-opacity="1"><g transform="translate(108.610737, 37.750723)"><g><path d="M 2.703125 -7.9375 L 2.703125 0 L 0.59375 0 L 0.59375 -7.9375 Z M 2.703125 -7.9375 "/></g></g></g><g fill="#000000" fill-opacity="1"><g transform="translate(111.908623, 37.750723)"><g><path d="M 2.703125 -7.9375 L 2.703125 0 L 0.59375 0 L 0.59375 -7.9375 Z M 2.703125 -7.9375 "/></g></g></g><g fill="#000000" fill-opacity="1"><g transform="translate(115.206509, 37.750723)"><g><path d="M 6.34375 -3.078125 C 6.34375 -2.910156 6.332031 -2.742188 6.3125 -2.578125 L 2.34375 -2.578125 C 2.363281 -2.253906 2.453125 -2.007812 2.609375 -1.84375 C 2.765625 -1.6875 2.96875 -1.609375 3.21875 -1.609375 C 3.570312 -1.609375 3.828125 -1.765625 3.984375 -2.078125 L 6.21875 -2.078125 C 6.125 -1.660156 5.941406 -1.289062 5.671875 -0.96875 C 5.410156 -0.644531 5.070312 -0.390625 4.65625 -0.203125 C 4.25 -0.015625 3.800781 0.078125 3.3125 0.078125 C 2.71875 0.078125 2.191406 -0.046875 1.734375 -0.296875 C 1.273438 -0.546875 0.910156 -0.898438 0.640625 -1.359375 C 0.378906 -1.828125 0.25 -2.378906 0.25 -3.015625 C 0.25 -3.640625 0.378906 -4.179688 0.640625 -4.640625 C 0.898438 -5.109375 1.257812 -5.46875 1.71875 -5.71875 C 2.175781 -5.96875 2.707031 -6.09375 3.3125 -6.09375 C 3.90625 -6.09375 4.429688 -5.96875 4.890625 -5.71875 C 5.347656 -5.476562 5.703125 -5.128906 5.953125 -4.671875 C 6.210938 -4.222656 6.34375 -3.691406 6.34375 -3.078125 Z M 4.203125 -3.59375 C 4.203125 -3.851562 4.113281 -4.054688 3.9375 -4.203125 C 3.769531 -4.347656 3.554688 -4.421875 3.296875 -4.421875 C 3.046875 -4.421875 2.835938 -4.351562 2.671875 -4.21875 C 2.503906 -4.082031 2.394531 -3.875 2.34375 -3.59375 Z M 4.203125 -3.59375 "/></g></g></g><g fill="#000000" fill-opacity="1"><g transform="translate(121.802291, 37.750723)"><g><path d="M 2.703125 -4.953125 C 2.941406 -5.296875 3.226562 -5.566406 3.5625 -5.765625 C 3.894531 -5.960938 4.253906 -6.0625 4.640625 -6.0625 L 4.640625 -3.828125 L 4.046875 -3.828125 C 3.585938 -3.828125 3.25 -3.738281 3.03125 -3.5625 C 2.8125 -3.382812 2.703125 -3.070312 2.703125 -2.625 L 2.703125 0 L 0.59375 0 L 0.59375 -6.015625 L 2.703125 -6.015625 Z M 2.703125 -4.953125 "/></g></g></g><g fill="#000000" fill-opacity="1"><g transform="translate(126.588511, 37.750723)"><g><path d="M 3.390625 0.078125 C 2.796875 0.078125 2.257812 -0.046875 1.78125 -0.296875 C 1.3125 -0.546875 0.9375 -0.898438 0.65625 -1.359375 C 0.382812 -1.828125 0.25 -2.378906 0.25 -3.015625 C 0.25 -3.628906 0.382812 -4.171875 0.65625 -4.640625 C 0.9375 -5.109375 1.316406 -5.46875 1.796875 -5.71875 C 2.273438 -5.96875 2.8125 -6.09375 3.40625 -6.09375 C 4.007812 -6.09375 4.546875 -5.96875 5.015625 -5.71875 C 5.492188 -5.46875 5.867188 -5.109375 6.140625 -4.640625 C 6.421875 -4.171875 6.5625 -3.628906 6.5625 -3.015625 C 6.5625 -2.390625 6.421875 -1.84375 6.140625 -1.375 C 5.867188 -0.90625 5.492188 -0.546875 5.015625 -0.296875 C 4.535156 -0.046875 3.992188 0.078125 3.390625 0.078125 Z M 3.390625 -1.75 C 3.691406 -1.75 3.9375 -1.859375 4.125 -2.078125 C 4.320312 -2.296875 4.421875 -2.609375 4.421875 -3.015625 C 4.421875 -3.421875 4.320312 -3.726562 4.125 -3.9375 C 3.9375 -4.15625 3.695312 -4.265625 3.40625 -4.265625 C 3.125 -4.265625 2.882812 -4.15625 2.6875 -3.9375 C 2.5 -3.726562 2.40625 -3.421875 2.40625 -3.015625 C 2.40625 -2.597656 2.492188 -2.28125 2.671875 -2.0625 C 2.859375 -1.851562 3.097656 -1.75 3.390625 -1.75 Z M 3.390625 -1.75 "/></g></g></g><g fill="#000000" fill-opacity="1"><g transform="translate(45.448058, 45.628776)"><g><path d="M 1.890625 -2.78125 L 1.890625 -2.484375 L 0.671875 -2.484375 L 0.671875 -1.546875 L 1.65625 -1.546875 L 1.65625 -1.25 L 0.671875 -1.25 L 0.671875 0 L 0.3125 0 L 0.3125 -2.78125 Z M 1.890625 -2.78125 "/></g></g></g><g fill="#000000" fill-opacity="1"><g transform="translate(49.092072, 45.628776)"><g><path d="M 2.25 -2.1875 L 2.25 0 L 1.890625 0 L 1.890625 -0.328125 C 1.816406 -0.210938 1.71875 -0.125 1.59375 -0.0625 C 1.46875 0 1.332031 0.03125 1.1875 0.03125 C 1.019531 0.03125 0.867188 -0.00390625 0.734375 -0.078125 C 0.597656 -0.148438 0.488281 -0.253906 0.40625 -0.390625 C 0.320312 -0.535156 0.28125 -0.707031 0.28125 -0.90625 L 0.28125 -2.1875 L 0.640625 -2.1875 L 0.640625 -0.953125 C 0.640625 -0.734375 0.691406 -0.566406 0.796875 -0.453125 C 0.910156 -0.335938 1.066406 -0.28125 1.265625 -0.28125 C 1.453125 -0.28125 1.601562 -0.335938 1.71875 -0.453125 C 1.832031 -0.578125 1.890625 -0.753906 1.890625 -0.984375 L 1.890625 -2.1875 Z M 2.25 -2.1875 "/></g></g></g><g fill="#000000" fill-opacity="1"><g transform="translate(53.280087, 45.628776)"><g><path d="M 0.671875 -2.953125 L 0.671875 0 L 0.3125 0 L 0.3125 -2.953125 Z M 0.671875 -2.953125 "/></g></g></g><g fill="#000000" fill-opacity="1"><g transform="translate(55.892095, 45.628776)"><g><path d="M 0.671875 -2.953125 L 0.671875 0 L 0.3125 0 L 0.3125 -2.953125 Z M 0.671875 -2.953125 "/></g></g></g><g fill="#000000" fill-opacity="1"><g transform="translate(58.504101, 45.628776)"><g/></g></g><g fill="#000000" fill-opacity="1"><g transform="translate(61.200108, 45.628776)"><g><path d="M 1.1875 0.03125 C 1.007812 0.03125 0.847656 0 0.703125 -0.0625 C 0.554688 -0.132812 0.441406 -0.226562 0.359375 -0.34375 C 0.273438 -0.457031 0.234375 -0.59375 0.234375 -0.75 L 0.609375 -0.75 C 0.628906 -0.613281 0.6875 -0.5 0.78125 -0.40625 C 0.875 -0.320312 1.007812 -0.28125 1.1875 -0.28125 C 1.363281 -0.28125 1.5 -0.320312 1.59375 -0.40625 C 1.695312 -0.5 1.75 -0.613281 1.75 -0.75 C 1.75 -0.851562 1.71875 -0.9375 1.65625 -1 C 1.601562 -1.070312 1.53125 -1.125 1.4375 -1.15625 C 1.351562 -1.1875 1.238281 -1.222656 1.09375 -1.265625 C 0.90625 -1.316406 0.753906 -1.363281 0.640625 -1.40625 C 0.535156 -1.457031 0.441406 -1.535156 0.359375 -1.640625 C 0.285156 -1.742188 0.25 -1.878906 0.25 -2.046875 C 0.25 -2.203125 0.285156 -2.335938 0.359375 -2.453125 C 0.429688 -2.566406 0.535156 -2.65625 0.671875 -2.71875 C 0.816406 -2.789062 0.984375 -2.828125 1.171875 -2.828125 C 1.429688 -2.828125 1.644531 -2.757812 1.8125 -2.625 C 1.976562 -2.5 2.070312 -2.328125 2.09375 -2.109375 L 1.6875 -2.109375 C 1.675781 -2.210938 1.617188 -2.304688 1.515625 -2.390625 C 1.421875 -2.472656 1.289062 -2.515625 1.125 -2.515625 C 0.976562 -2.515625 0.851562 -2.472656 0.75 -2.390625 C 0.65625 -2.316406 0.609375 -2.207031 0.609375 -2.0625 C 0.609375 -1.957031 0.632812 -1.875 0.6875 -1.8125 C 0.75 -1.75 0.820312 -1.703125 0.90625 -1.671875 C 1 -1.640625 1.117188 -1.601562 1.265625 -1.5625 C 1.453125 -1.507812 1.597656 -1.457031 1.703125 -1.40625 C 1.816406 -1.351562 1.914062 -1.273438 2 -1.171875 C 2.082031 -1.078125 2.125 -0.941406 2.125 -0.765625 C 2.125 -0.628906 2.085938 -0.5 2.015625 -0.375 C 1.941406 -0.257812 1.832031 -0.160156 1.6875 -0.078125 C 1.550781 -0.00390625 1.382812 0.03125 1.1875 0.03125 Z M 1.1875 0.03125 "/></g></g></g><g fill="#000000" fill-opacity="1"><g transform="translate(65.176122, 45.628776)"><g><path d="M 0.75 -1.890625 L 0.75 -0.59375 C 0.75 -0.488281 0.769531 -0.414062 0.8125 -0.375 C 0.863281 -0.332031 0.945312 -0.3125 1.0625 -0.3125 L 1.328125 -0.3125 L 1.328125 0 L 1 0 C 0.789062 0 0.632812 -0.046875 0.53125 -0.140625 C 0.4375 -0.234375 0.390625 -0.382812 0.390625 -0.59375 L 0.390625 -1.890625 L 0.109375 -1.890625 L 0.109375 -2.1875 L 0.390625 -2.1875 L 0.390625 -2.75 L 0.75 -2.75 L 0.75 -2.1875 L 1.328125 -2.1875 L 1.328125 -1.890625 Z M 0.75 -1.890625 "/></g></g></g><g fill="#000000" fill-opacity="1"><g transform="translate(68.260129, 45.628776)"><g><path d="M 0.171875 -1.109375 C 0.171875 -1.328125 0.210938 -1.519531 0.296875 -1.6875 C 0.390625 -1.863281 0.515625 -2 0.671875 -2.09375 C 0.835938 -2.1875 1.019531 -2.234375 1.21875 -2.234375 C 1.40625 -2.234375 1.566406 -2.191406 1.703125 -2.109375 C 1.847656 -2.023438 1.957031 -1.921875 2.03125 -1.796875 L 2.03125 -2.1875 L 2.390625 -2.1875 L 2.390625 0 L 2.03125 0 L 2.03125 -0.40625 C 1.957031 -0.28125 1.847656 -0.175781 1.703125 -0.09375 C 1.554688 -0.0078125 1.390625 0.03125 1.203125 0.03125 C 1.015625 0.03125 0.835938 -0.015625 0.671875 -0.109375 C 0.515625 -0.203125 0.390625 -0.332031 0.296875 -0.5 C 0.210938 -0.675781 0.171875 -0.878906 0.171875 -1.109375 Z M 2.03125 -1.09375 C 2.03125 -1.257812 1.992188 -1.40625 1.921875 -1.53125 C 1.859375 -1.65625 1.769531 -1.75 1.65625 -1.8125 C 1.539062 -1.875 1.414062 -1.90625 1.28125 -1.90625 C 1.144531 -1.90625 1.019531 -1.875 0.90625 -1.8125 C 0.800781 -1.75 0.710938 -1.65625 0.640625 -1.53125 C 0.578125 -1.414062 0.546875 -1.273438 0.546875 -1.109375 C 0.546875 -0.941406 0.578125 -0.796875 0.640625 -0.671875 C 0.710938 -0.546875 0.800781 -0.445312 0.90625 -0.375 C 1.019531 -0.3125 1.144531 -0.28125 1.28125 -0.28125 C 1.414062 -0.28125 1.539062 -0.3125 1.65625 -0.375 C 1.769531 -0.445312 1.859375 -0.546875 1.921875 -0.671875 C 1.992188 -0.796875 2.03125 -0.9375 2.03125 -1.09375 Z M 2.03125 -1.09375 "/></g></g></g><g fill="#000000" fill-opacity="1"><g transform="translate(72.592147, 45.628776)"><g><path d="M 0.171875 -1.09375 C 0.171875 -1.320312 0.210938 -1.519531 0.296875 -1.6875 C 0.390625 -1.863281 0.515625 -2 0.671875 -2.09375 C 0.835938 -2.1875 1.023438 -2.234375 1.234375 -2.234375 C 1.503906 -2.234375 1.726562 -2.164062 1.90625 -2.03125 C 2.082031 -1.90625 2.195312 -1.722656 2.25 -1.484375 L 1.859375 -1.484375 C 1.816406 -1.617188 1.742188 -1.722656 1.640625 -1.796875 C 1.535156 -1.878906 1.398438 -1.921875 1.234375 -1.921875 C 1.023438 -1.921875 0.859375 -1.847656 0.734375 -1.703125 C 0.609375 -1.554688 0.546875 -1.351562 0.546875 -1.09375 C 0.546875 -0.832031 0.609375 -0.628906 0.734375 -0.484375 C 0.859375 -0.335938 1.023438 -0.265625 1.234375 -0.265625 C 1.398438 -0.265625 1.535156 -0.300781 1.640625 -0.375 C 1.742188 -0.457031 1.816406 -0.566406 1.859375 -0.703125 L 2.25 -0.703125 C 2.1875 -0.484375 2.066406 -0.304688 1.890625 -0.171875 C 1.722656 -0.0351562 1.503906 0.03125 1.234375 0.03125 C 1.023438 0.03125 0.835938 -0.015625 0.671875 -0.109375 C 0.515625 -0.203125 0.390625 -0.332031 0.296875 -0.5 C 0.210938 -0.664062 0.171875 -0.863281 0.171875 -1.09375 Z M 0.171875 -1.09375 "/></g></g></g><g fill="#000000" fill-opacity="1"><g transform="translate(76.648164, 45.628776)"><g><path d="M 1.53125 0 L 0.671875 -0.96875 L 0.671875 0 L 0.3125 0 L 0.3125 -2.953125 L 0.671875 -2.953125 L 0.671875 -1.21875 L 1.515625 -2.1875 L 2.03125 -2.1875 L 0.984375 -1.09375 L 2.03125 0 Z M 1.53125 0 "/></g></g></g><g fill="#000000" fill-opacity="1"><g transform="translate(80.336176, 45.628776)"><g/></g></g><g fill="#000000" fill-opacity="1"><g transform="translate(83.032183, 45.628776)"><g><path d="M 3.8125 -2.78125 L 3 0 L 2.59375 0 L 1.953125 -2.25 L 1.28125 0 L 0.875 0 L 0.09375 -2.78125 L 0.484375 -2.78125 L 1.09375 -0.421875 L 1.765625 -2.78125 L 2.171875 -2.78125 L 2.8125 -0.4375 L 3.421875 -2.78125 Z M 3.8125 -2.78125 "/></g></g></g><g fill="#000000" fill-opacity="1"><g transform="translate(88.564206, 45.628776)"><g><path d="M 2.3125 -1.1875 C 2.3125 -1.113281 2.304688 -1.035156 2.296875 -0.953125 L 0.546875 -0.953125 C 0.554688 -0.742188 0.628906 -0.578125 0.765625 -0.453125 C 0.898438 -0.328125 1.0625 -0.265625 1.25 -0.265625 C 1.40625 -0.265625 1.535156 -0.300781 1.640625 -0.375 C 1.753906 -0.445312 1.832031 -0.546875 1.875 -0.671875 L 2.265625 -0.671875 C 2.203125 -0.460938 2.082031 -0.289062 1.90625 -0.15625 C 1.726562 -0.03125 1.507812 0.03125 1.25 0.03125 C 1.039062 0.03125 0.851562 -0.015625 0.6875 -0.109375 C 0.53125 -0.203125 0.40625 -0.332031 0.3125 -0.5 C 0.21875 -0.675781 0.171875 -0.875 0.171875 -1.09375 C 0.171875 -1.320312 0.210938 -1.519531 0.296875 -1.6875 C 0.390625 -1.863281 0.519531 -2 0.6875 -2.09375 C 0.851562 -2.1875 1.039062 -2.234375 1.25 -2.234375 C 1.457031 -2.234375 1.640625 -2.1875 1.796875 -2.09375 C 1.960938 -2 2.085938 -1.875 2.171875 -1.71875 C 2.265625 -1.5625 2.3125 -1.382812 2.3125 -1.1875 Z M 1.9375 -1.25 C 1.9375 -1.394531 1.90625 -1.515625 1.84375 -1.609375 C 1.78125 -1.710938 1.695312 -1.789062 1.59375 -1.84375 C 1.488281 -1.894531 1.367188 -1.921875 1.234375 -1.921875 C 1.054688 -1.921875 0.898438 -1.859375 0.765625 -1.734375 C 0.640625 -1.617188 0.566406 -1.457031 0.546875 -1.25 Z M 1.9375 -1.25 "/></g></g></g><g fill="#000000" fill-opacity="1"><g transform="translate(92.67222, 45.628776)"><g><path d="M 0.671875 -1.78125 C 0.742188 -1.914062 0.851562 -2.023438 1 -2.109375 C 1.144531 -2.191406 1.304688 -2.234375 1.484375 -2.234375 C 1.679688 -2.234375 1.859375 -2.1875 2.015625 -2.09375 C 2.179688 -2 2.304688 -1.863281 2.390625 -1.6875 C 2.484375 -1.519531 2.53125 -1.328125 2.53125 -1.109375 C 2.53125 -0.878906 2.484375 -0.675781 2.390625 -0.5 C 2.304688 -0.332031 2.179688 -0.203125 2.015625 -0.109375 C 1.859375 -0.015625 1.679688 0.03125 1.484375 0.03125 C 1.296875 0.03125 1.128906 -0.0078125 0.984375 -0.09375 C 0.847656 -0.175781 0.742188 -0.28125 0.671875 -0.40625 L 0.671875 0 L 0.3125 0 L 0.3125 -2.953125 L 0.671875 -2.953125 Z M 2.15625 -1.109375 C 2.15625 -1.273438 2.117188 -1.414062 2.046875 -1.53125 C 1.984375 -1.65625 1.894531 -1.75 1.78125 -1.8125 C 1.675781 -1.875 1.554688 -1.90625 1.421875 -1.90625 C 1.285156 -1.90625 1.160156 -1.875 1.046875 -1.8125 C 0.929688 -1.75 0.835938 -1.65625 0.765625 -1.53125 C 0.703125 -1.40625 0.671875 -1.257812 0.671875 -1.09375 C 0.671875 -0.9375 0.703125 -0.796875 0.765625 -0.671875 C 0.835938 -0.546875 0.929688 -0.445312 1.046875 -0.375 C 1.160156 -0.3125 1.285156 -0.28125 1.421875 -0.28125 C 1.554688 -0.28125 1.675781 -0.3125 1.78125 -0.375 C 1.894531 -0.445312 1.984375 -0.546875 2.046875 -0.671875 C 2.117188 -0.796875 2.15625 -0.941406 2.15625 -1.109375 Z M 2.15625 -1.109375 "/></g></g></g><g fill="#000000" fill-opacity="1"><g transform="translate(97.004238, 45.628776)"><g/></g></g><g fill="#000000" fill-opacity="1"><g transform="translate(99.700246, 45.628776)"><g><path d="M 1.171875 -2.78125 C 1.472656 -2.78125 1.734375 -2.722656 1.953125 -2.609375 C 2.179688 -2.503906 2.351562 -2.34375 2.46875 -2.125 C 2.59375 -1.914062 2.65625 -1.671875 2.65625 -1.390625 C 2.65625 -1.097656 2.59375 -0.847656 2.46875 -0.640625 C 2.351562 -0.429688 2.179688 -0.269531 1.953125 -0.15625 C 1.734375 -0.0507812 1.472656 0 1.171875 0 L 0.3125 0 L 0.3125 -2.78125 Z M 1.171875 -0.296875 C 1.535156 -0.296875 1.8125 -0.390625 2 -0.578125 C 2.1875 -0.773438 2.28125 -1.046875 2.28125 -1.390625 C 2.28125 -1.734375 2.1875 -2 2 -2.1875 C 1.8125 -2.382812 1.535156 -2.484375 1.171875 -2.484375 L 0.671875 -2.484375 L 0.671875 -0.296875 Z M 1.171875 -0.296875 "/></g></g></g><g fill="#000000" fill-opacity="1"><g transform="translate(104.156262, 45.628776)"><g><path d="M 2.3125 -1.1875 C 2.3125 -1.113281 2.304688 -1.035156 2.296875 -0.953125 L 0.546875 -0.953125 C 0.554688 -0.742188 0.628906 -0.578125 0.765625 -0.453125 C 0.898438 -0.328125 1.0625 -0.265625 1.25 -0.265625 C 1.40625 -0.265625 1.535156 -0.300781 1.640625 -0.375 C 1.753906 -0.445312 1.832031 -0.546875 1.875 -0.671875 L 2.265625 -0.671875 C 2.203125 -0.460938 2.082031 -0.289062 1.90625 -0.15625 C 1.726562 -0.03125 1.507812 0.03125 1.25 0.03125 C 1.039062 0.03125 0.851562 -0.015625 0.6875 -0.109375 C 0.53125 -0.203125 0.40625 -0.332031 0.3125 -0.5 C 0.21875 -0.675781 0.171875 -0.875 0.171875 -1.09375 C 0.171875 -1.320312 0.210938 -1.519531 0.296875 -1.6875 C 0.390625 -1.863281 0.519531 -2 0.6875 -2.09375 C 0.851562 -2.1875 1.039062 -2.234375 1.25 -2.234375 C 1.457031 -2.234375 1.640625 -2.1875 1.796875 -2.09375 C 1.960938 -2 2.085938 -1.875 2.171875 -1.71875 C 2.265625 -1.5625 2.3125 -1.382812 2.3125 -1.1875 Z M 1.9375 -1.25 C 1.9375 -1.394531 1.90625 -1.515625 1.84375 -1.609375 C 1.78125 -1.710938 1.695312 -1.789062 1.59375 -1.84375 C 1.488281 -1.894531 1.367188 -1.921875 1.234375 -1.921875 C 1.054688 -1.921875 0.898438 -1.859375 0.765625 -1.734375 C 0.640625 -1.617188 0.566406 -1.457031 0.546875 -1.25 Z M 1.9375 -1.25 "/></g></g></g><g fill="#000000" fill-opacity="1"><g transform="translate(108.264277, 45.628776)"><g><path d="M 1.125 -0.34375 L 1.796875 -2.1875 L 2.1875 -2.1875 L 1.328125 0 L 0.90625 0 L 0.046875 -2.1875 L 0.4375 -2.1875 Z M 1.125 -0.34375 "/></g></g></g><g fill="#000000" fill-opacity="1"><g transform="translate(112.136288, 45.628776)"><g><path d="M 2.3125 -1.1875 C 2.3125 -1.113281 2.304688 -1.035156 2.296875 -0.953125 L 0.546875 -0.953125 C 0.554688 -0.742188 0.628906 -0.578125 0.765625 -0.453125 C 0.898438 -0.328125 1.0625 -0.265625 1.25 -0.265625 C 1.40625 -0.265625 1.535156 -0.300781 1.640625 -0.375 C 1.753906 -0.445312 1.832031 -0.546875 1.875 -0.671875 L 2.265625 -0.671875 C 2.203125 -0.460938 2.082031 -0.289062 1.90625 -0.15625 C 1.726562 -0.03125 1.507812 0.03125 1.25 0.03125 C 1.039062 0.03125 0.851562 -0.015625 0.6875 -0.109375 C 0.53125 -0.203125 0.40625 -0.332031 0.3125 -0.5 C 0.21875 -0.675781 0.171875 -0.875 0.171875 -1.09375 C 0.171875 -1.320312 0.210938 -1.519531 0.296875 -1.6875 C 0.390625 -1.863281 0.519531 -2 0.6875 -2.09375 C 0.851562 -2.1875 1.039062 -2.234375 1.25 -2.234375 C 1.457031 -2.234375 1.640625 -2.1875 1.796875 -2.09375 C 1.960938 -2 2.085938 -1.875 2.171875 -1.71875 C 2.265625 -1.5625 2.3125 -1.382812 2.3125 -1.1875 Z M 1.9375 -1.25 C 1.9375 -1.394531 1.90625 -1.515625 1.84375 -1.609375 C 1.78125 -1.710938 1.695312 -1.789062 1.59375 -1.84375 C 1.488281 -1.894531 1.367188 -1.921875 1.234375 -1.921875 C 1.054688 -1.921875 0.898438 -1.859375 0.765625 -1.734375 C 0.640625 -1.617188 0.566406 -1.457031 0.546875 -1.25 Z M 1.9375 -1.25 "/></g></g></g><g fill="#000000" fill-opacity="1"><g transform="translate(116.244303, 45.628776)"><g><path d="M 0.671875 -2.953125 L 0.671875 0 L 0.3125 0 L 0.3125 -2.953125 Z M 0.671875 -2.953125 "/></g></g></g><g fill="#000000" fill-opacity="1"><g transform="translate(118.856311, 45.628776)"><g><path d="M 1.265625 0.03125 C 1.054688 0.03125 0.867188 -0.015625 0.703125 -0.109375 C 0.535156 -0.203125 0.40625 -0.332031 0.3125 -0.5 C 0.21875 -0.675781 0.171875 -0.875 0.171875 -1.09375 C 0.171875 -1.320312 0.21875 -1.519531 0.3125 -1.6875 C 0.414062 -1.863281 0.550781 -2 0.71875 -2.09375 C 0.882812 -2.1875 1.070312 -2.234375 1.28125 -2.234375 C 1.488281 -2.234375 1.675781 -2.1875 1.84375 -2.09375 C 2.007812 -2 2.140625 -1.863281 2.234375 -1.6875 C 2.335938 -1.519531 2.390625 -1.320312 2.390625 -1.09375 C 2.390625 -0.875 2.335938 -0.675781 2.234375 -0.5 C 2.140625 -0.332031 2.003906 -0.203125 1.828125 -0.109375 C 1.660156 -0.015625 1.472656 0.03125 1.265625 0.03125 Z M 1.265625 -0.28125 C 1.390625 -0.28125 1.507812 -0.3125 1.625 -0.375 C 1.738281 -0.4375 1.832031 -0.53125 1.90625 -0.65625 C 1.976562 -0.78125 2.015625 -0.925781 2.015625 -1.09375 C 2.015625 -1.269531 1.976562 -1.421875 1.90625 -1.546875 C 1.84375 -1.671875 1.753906 -1.757812 1.640625 -1.8125 C 1.523438 -1.875 1.40625 -1.90625 1.28125 -1.90625 C 1.144531 -1.90625 1.019531 -1.875 0.90625 -1.8125 C 0.800781 -1.757812 0.710938 -1.671875 0.640625 -1.546875 C 0.578125 -1.421875 0.546875 -1.269531 0.546875 -1.09375 C 0.546875 -0.914062 0.578125 -0.765625 0.640625 -0.640625 C 0.703125 -0.523438 0.785156 -0.4375 0.890625 -0.375 C 1.003906 -0.3125 1.128906 -0.28125 1.265625 -0.28125 Z M 1.265625 -0.28125 "/></g></g></g><g fill="#000000" fill-opacity="1"><g transform="translate(123.044327, 45.628776)"><g><path d="M 0.671875 -1.78125 C 0.742188 -1.90625 0.847656 -2.007812 0.984375 -2.09375 C 1.128906 -2.1875 1.296875 -2.234375 1.484375 -2.234375 C 1.679688 -2.234375 1.859375 -2.1875 2.015625 -2.09375 C 2.179688 -2 2.304688 -1.863281 2.390625 -1.6875 C 2.484375 -1.519531 2.53125 -1.328125 2.53125 -1.109375 C 2.53125 -0.878906 2.484375 -0.675781 2.390625 -0.5 C 2.304688 -0.332031 2.179688 -0.203125 2.015625 -0.109375 C 1.859375 -0.015625 1.679688 0.03125 1.484375 0.03125 C 1.304688 0.03125 1.144531 -0.0078125 1 -0.09375 C 0.851562 -0.175781 0.742188 -0.28125 0.671875 -0.40625 L 0.671875 1.046875 L 0.3125 1.046875 L 0.3125 -2.1875 L 0.671875 -2.1875 Z M 2.15625 -1.109375 C 2.15625 -1.273438 2.117188 -1.414062 2.046875 -1.53125 C 1.984375 -1.65625 1.894531 -1.75 1.78125 -1.8125 C 1.675781 -1.875 1.554688 -1.90625 1.421875 -1.90625 C 1.285156 -1.90625 1.160156 -1.875 1.046875 -1.8125 C 0.929688 -1.75 0.835938 -1.65625 0.765625 -1.53125 C 0.703125 -1.40625 0.671875 -1.257812 0.671875 -1.09375 C 0.671875 -0.9375 0.703125 -0.796875 0.765625 -0.671875 C 0.835938 -0.546875 0.929688 -0.445312 1.046875 -0.375 C 1.160156 -0.3125 1.285156 -0.28125 1.421875 -0.28125 C 1.554688 -0.28125 1.675781 -0.3125 1.78125 -0.375 C 1.894531 -0.445312 1.984375 -0.546875 2.046875 -0.671875 C 2.117188 -0.796875 2.15625 -0.941406 2.15625 -1.109375 Z M 2.15625 -1.109375 "/></g></g></g><g fill="#000000" fill-opacity="1"><g transform="translate(127.376345, 45.628776)"><g><path d="M 2.3125 -1.1875 C 2.3125 -1.113281 2.304688 -1.035156 2.296875 -0.953125 L 0.546875 -0.953125 C 0.554688 -0.742188 0.628906 -0.578125 0.765625 -0.453125 C 0.898438 -0.328125 1.0625 -0.265625 1.25 -0.265625 C 1.40625 -0.265625 1.535156 -0.300781 1.640625 -0.375 C 1.753906 -0.445312 1.832031 -0.546875 1.875 -0.671875 L 2.265625 -0.671875 C 2.203125 -0.460938 2.082031 -0.289062 1.90625 -0.15625 C 1.726562 -0.03125 1.507812 0.03125 1.25 0.03125 C 1.039062 0.03125 0.851562 -0.015625 0.6875 -0.109375 C 0.53125 -0.203125 0.40625 -0.332031 0.3125 -0.5 C 0.21875 -0.675781 0.171875 -0.875 0.171875 -1.09375 C 0.171875 -1.320312 0.210938 -1.519531 0.296875 -1.6875 C 0.390625 -1.863281 0.519531 -2 0.6875 -2.09375 C 0.851562 -2.1875 1.039062 -2.234375 1.25 -2.234375 C 1.457031 -2.234375 1.640625 -2.1875 1.796875 -2.09375 C 1.960938 -2 2.085938 -1.875 2.171875 -1.71875 C 2.265625 -1.5625 2.3125 -1.382812 2.3125 -1.1875 Z M 1.9375 -1.25 C 1.9375 -1.394531 1.90625 -1.515625 1.84375 -1.609375 C 1.78125 -1.710938 1.695312 -1.789062 1.59375 -1.84375 C 1.488281 -1.894531 1.367188 -1.921875 1.234375 -1.921875 C 1.054688 -1.921875 0.898438 -1.859375 0.765625 -1.734375 C 0.640625 -1.617188 0.566406 -1.457031 0.546875 -1.25 Z M 1.9375 -1.25 "/></g></g></g><g fill="#000000" fill-opacity="1"><g transform="translate(131.48436, 45.628776)"><g><path d="M 0.671875 -1.84375 C 0.734375 -1.96875 0.820312 -2.0625 0.9375 -2.125 C 1.0625 -2.195312 1.207031 -2.234375 1.375 -2.234375 L 1.375 -1.859375 L 1.28125 -1.859375 C 0.875 -1.859375 0.671875 -1.632812 0.671875 -1.1875 L 0.671875 0 L 0.3125 0 L 0.3125 -2.1875 L 0.671875 -2.1875 Z M 0.671875 -1.84375 "/></g></g></g></svg>