<svg xmlns="http://www.w3.org/2000/svg" xmlns:xlink="http://www.w3.org/1999/xlink" width="800" zoomAndPan="magnify" viewBox="0 0 600 599.999999" height="800" preserveAspectRatio="xMidYMid meet" version="1.0"><defs><clipPath id="fa6fa5dd3b"><path d="M 90 140.398438 L 288 140.398438 L 288 459.898438 L 90 459.898438 Z M 90 140.398438 " clip-rule="nonzero"/></clipPath><clipPath id="3f6b1104bf"><path d="M 307 140.398438 L 510 140.398438 L 510 459.898438 L 307 459.898438 Z M 307 140.398438 " clip-rule="nonzero"/></clipPath></defs><g clip-path="url(#fa6fa5dd3b)"><path fill="#878a8f" d="M 198.683594 277.144531 C 178.820312 277.144531 160.535156 283.769531 145.761719 294.808594 C 147.214844 248.742188 182.789062 202.664062 252.976562 156.578125 L 242.5625 140.398438 C 140.859375 203.648438 90.003906 273.0625 90.003906 348.632812 C 90.003906 383.335938 99.4375 410.53125 118.320312 430.179688 C 137.1875 449.859375 161.082031 459.675781 189.972656 459.675781 C 218.882812 459.675781 242.175781 451.78125 259.902344 435.96875 C 277.617188 420.171875 286.488281 401.066406 286.488281 378.714844 C 286.488281 378.460938 286.441406 378.277344 286.441406 378.007812 C 286.984375 374.042969 287.367188 370.035156 287.367188 365.894531 C 287.367188 316.894531 247.648438 277.144531 198.683594 277.144531 Z M 198.683594 277.144531 " fill-opacity="1" fill-rule="nonzero"/></g><g clip-path="url(#3f6b1104bf)"><path fill="#878a8f" d="M 485.410156 427.175781 C 486.558594 425.847656 487.945312 424.582031 489 423.195312 C 502.0625 407.730469 509.996094 387.765625 509.996094 365.898438 C 509.996094 316.898438 470.285156 277.136719 421.324219 277.136719 C 398.894531 277.136719 378.480469 285.535156 362.855469 299.292969 C 362.855469 298.746094 362.769531 298.285156 362.769531 297.71875 C 362.769531 250.683594 398.589844 203.617188 470.261719 156.570312 L 459.855469 140.398438 C 358.140625 203.648438 307.28125 273.0625 307.28125 348.652344 C 307.28125 383.355469 316.714844 410.546875 335.605469 430.191406 C 354.472656 449.875 378.363281 459.703125 407.253906 459.703125 C 436.144531 459.703125 459.46875 451.792969 477.183594 435.972656 C 479.691406 433.765625 481.632812 431.285156 483.78125 428.917969 C 484.347656 428.355469 484.855469 427.765625 485.410156 427.175781 Z M 485.410156 427.175781 " fill-opacity="1" fill-rule="nonzero"/></g></svg>